<svg width="180" height="159" viewBox="0 0 180 159" fill="none" xmlns="http://www.w3.org/2000/svg">
<g clip-path="url(#clip0_411_45347)">
<path fill-rule="evenodd" clip-rule="evenodd" d="M0.9729 114.357V102.619H3.94587L7.30782 111.619L10.642 102.619H13.6427V114.357H11.4755V105.628L8.22471 114.357H6.39092L3.19568 105.628V114.357H0.9729Z" fill="#2BA495"/>
<path fill-rule="evenodd" clip-rule="evenodd" d="M15.8367 114.357V102.619H22.3661V104.788H18.115V107.471H22.1716V109.559H18.115V112.269H22.3661V114.357H15.8367Z" fill="#2BA495"/>
<path fill-rule="evenodd" clip-rule="evenodd" d="M26.8959 112.269L29.841 105.682L32.8696 112.269H26.8959ZM35.2313 112.269L30.8413 102.51H28.9241L24.4508 112.269H23.3394V116.524H25.5066V114.356H34.2032V116.524H36.426V112.269H35.2313Z" fill="#2BA495"/>
<path fill-rule="evenodd" clip-rule="evenodd" d="M37.5927 102.619H39.8711V110.887L45.2057 102.619H47.4285V114.356H45.2057V106.143L39.8711 114.356H37.5927V102.619Z" fill="#2BA495"/>
<path fill-rule="evenodd" clip-rule="evenodd" d="M58.4035 102.619V112.269H59.8205V116.525H57.57V114.356H49.6235V102.619H51.8463V112.269H56.2085V102.619H58.4035Z" fill="#2BA495"/>
<path fill-rule="evenodd" clip-rule="evenodd" d="M60.9879 102.619H63.2107V110.887L68.5454 102.619H70.7681V114.357H68.5454V106.143L63.2107 114.357H60.9879V102.619Z" fill="#2BA495"/>
<path fill-rule="evenodd" clip-rule="evenodd" d="M72.9901 114.357V102.619H75.1851V107.363H79.5473V102.619H81.8257V114.357H79.5473V109.45H75.1851V114.357H72.9901Z" fill="#2BA495"/>
<path fill-rule="evenodd" clip-rule="evenodd" d="M95.2179 106.035H92.6894C92.348 105.568 91.8886 105.194 91.3558 104.951C90.848 104.671 90.2719 104.53 89.6887 104.544C89.1659 104.543 88.6487 104.649 88.1703 104.854C87.6918 105.059 87.2626 105.36 86.9102 105.737C86.5407 106.09 86.2471 106.512 86.0467 106.977C85.8464 107.443 85.7432 107.943 85.7433 108.447C85.7294 109.518 86.1487 110.55 86.9102 111.321C87.2695 111.685 87.7013 111.974 88.1791 112.17C88.6568 112.365 89.1705 112.464 89.6887 112.459C90.2325 112.473 90.7729 112.371 91.2724 112.161C91.778 111.912 92.2232 111.561 92.5783 111.131H95.1623C94.698 112.17 93.9234 113.049 92.9395 113.652C91.9475 114.252 90.8002 114.562 89.6331 114.547C88.8093 114.574 87.9887 114.434 87.2234 114.135C86.4581 113.836 85.7648 113.386 85.1876 112.812C84.5954 112.254 84.127 111.584 83.8115 110.843C83.4961 110.101 83.3403 109.304 83.3538 108.502C83.3255 107.71 83.4693 106.922 83.7758 106.188C84.0823 105.455 84.5445 104.793 85.132 104.246C85.7197 103.67 86.4228 103.219 87.1972 102.921C87.9717 102.622 88.8009 102.483 89.6331 102.511C90.8324 102.474 92.0118 102.816 92.9951 103.487C94.0205 104.128 94.8015 105.081 95.2179 106.198V106.035Z" fill="#2BA495"/>
<path fill-rule="evenodd" clip-rule="evenodd" d="M96.6908 114.356V102.619H98.8858V107.715L102.581 102.619H105.276L100.747 108.366L105.276 114.356H102.581L98.8858 109.206V114.356H96.6908Z" fill="#2BA495"/>
<path fill-rule="evenodd" clip-rule="evenodd" d="M106.694 102.619H108.972V110.887L114.251 102.619H116.53V114.357H114.251V106.143L108.972 114.357H106.694V102.619Z" fill="#2BA495"/>
<path fill-rule="evenodd" clip-rule="evenodd" d="M118.752 102.619H120.947V110.887L126.282 102.619H128.504V114.356H126.282V106.143L120.947 114.356H118.752V102.619Z" fill="#2BA495"/>
<path fill-rule="evenodd" clip-rule="evenodd" d="M120.696 99.8H122.558C122.558 100.044 122.558 100.288 122.864 100.396C123.074 100.546 123.326 100.631 123.586 100.64C123.721 100.652 123.858 100.636 123.987 100.594C124.116 100.552 124.235 100.485 124.336 100.396C124.43 100.326 124.507 100.236 124.56 100.133C124.613 100.029 124.641 99.9156 124.642 99.8H126.531C126.434 100.444 126.086 101.027 125.559 101.426C124.982 101.824 124.292 102.033 123.586 102.023C122.88 102.033 122.189 101.824 121.613 101.426C121.14 100.992 120.819 100.423 120.696 99.8V99.8Z" fill="#2BA495"/>
<path fill-rule="evenodd" clip-rule="evenodd" d="M143.314 102.619V112.269H144.647V116.525H142.452V114.356H134.478V102.619H136.729V112.269H141.091V102.619H143.314Z" fill="#2BA495"/>
<path fill-rule="evenodd" clip-rule="evenodd" d="M145.814 114.356V102.619H152.288V104.788H148.093V107.471H152.094V109.558H148.093V112.269H152.288V114.356H145.814Z" fill="#2BA495"/>
<path fill-rule="evenodd" clip-rule="evenodd" d="M154.232 114.357V102.619H156.511V107.363H160.873V102.619H163.151V114.357H160.873V109.45H156.511V114.357H154.232Z" fill="#2BA495"/>
<path fill-rule="evenodd" clip-rule="evenodd" d="M166.542 114.356V104.788H164.319V102.619H170.959V104.788H168.737V114.356H166.542Z" fill="#2BA495"/>
<path fill-rule="evenodd" clip-rule="evenodd" d="M177.044 107.471C176.629 107.701 176.16 107.822 175.683 107.824H174.405V104.788H175.683C176.164 104.756 176.642 104.88 177.044 105.14C177.215 105.276 177.348 105.451 177.43 105.65C177.513 105.849 177.543 106.065 177.517 106.279C177.542 106.5 177.512 106.724 177.43 106.931C177.348 107.139 177.216 107.324 177.044 107.471ZM178.684 103.649C177.792 102.909 176.659 102.505 175.488 102.511H172.265V114.356H174.544V109.938H175.627C176.788 110.005 177.931 109.636 178.822 108.908C179.189 108.584 179.479 108.185 179.671 107.741C179.863 107.296 179.952 106.815 179.934 106.333C179.967 105.829 179.885 105.324 179.693 104.855C179.5 104.386 179.203 103.965 178.822 103.622L178.684 103.649Z" fill="#2BA495"/>
<path fill-rule="evenodd" clip-rule="evenodd" d="M23.645 146.315C22.9141 147.551 21.8838 148.593 20.6442 149.351C19.3885 150.119 17.9308 150.515 16.4487 150.489C14.9945 150.502 13.5671 150.107 12.3366 149.351C11.1033 148.586 10.0746 147.545 9.33584 146.315C8.65048 144.997 8.30701 143.536 8.33559 142.059C8.28328 140.562 8.62781 139.078 9.33584 137.749C10.0574 136.499 11.0892 135.446 12.3366 134.686C13.5795 133.964 15.0021 133.589 16.4487 133.602C17.9235 133.579 19.3761 133.954 20.646 134.686C21.9159 135.418 22.9538 136.478 23.645 137.749C24.3454 139.063 24.7077 140.524 24.7008 142.005C24.7145 143.487 24.3518 144.949 23.645 146.261V146.315ZM31.7025 135.879C30.8599 133.959 29.6533 132.211 28.1461 130.728C26.6733 129.228 24.8937 128.045 22.9226 127.259C20.8753 126.411 18.6728 125.977 16.4487 125.985C14.3248 125.998 12.2227 126.403 10.2527 127.177C8.26338 127.966 6.45118 129.126 4.91807 130.593C3.42424 132.104 2.19464 133.844 1.27827 135.743C0.431301 137.765 -0.00285337 139.929 0.000171452 142.113C-0.0133609 144.976 0.774411 147.787 2.27852 150.245C3.71606 152.69 5.81038 154.705 8.33559 156.073C10.765 157.536 13.5659 158.306 16.4209 158.296C18.6638 158.311 20.8859 157.877 22.9504 157.022C24.9003 156.173 26.6716 154.978 28.1739 153.498C29.6956 152.017 30.8874 150.245 31.6748 148.294C32.5142 146.338 32.9304 144.233 32.8973 142.113C32.9056 139.978 32.4905 137.861 31.6748 135.879H31.7025Z" fill="#2BA495"/>
<path fill-rule="evenodd" clip-rule="evenodd" d="M57.57 150.381H49.2345V138.861C49.0931 137.519 49.4264 136.17 50.1792 135.039C50.5671 134.588 51.0586 134.232 51.6139 134.001C52.1691 133.771 52.7723 133.671 53.3745 133.71C53.9776 133.662 54.5838 133.757 55.1406 133.989C55.6973 134.22 56.1879 134.581 56.5697 135.039C57.3678 136.172 57.7227 137.548 57.57 138.915V150.381ZM65.7387 150.381V139.294C65.7901 136.885 65.2569 134.498 64.1827 132.328C63.2258 130.406 61.7082 128.803 59.8205 127.72C57.8615 126.621 55.6342 126.059 53.3745 126.093C51.1131 126.045 48.882 126.608 46.9284 127.72C45.052 128.817 43.5379 130.416 42.5662 132.328C41.4783 134.533 40.9358 136.956 40.9825 139.403V150.49H38.5096V158.35H67.9892V150.49L65.7387 150.381Z" fill="#2BA495"/>
<path fill-rule="evenodd" clip-rule="evenodd" d="M97.6082 146.315C96.8938 147.563 95.8599 148.609 94.6074 149.351C93.3802 150.114 91.9506 150.51 90.4953 150.489C89.0322 150.503 87.5958 150.108 86.3554 149.351C85.1091 148.601 84.077 147.557 83.3546 146.315C82.5717 145.028 82.1679 143.555 82.1877 142.059C82.1732 140.546 82.5763 139.058 83.3546 137.749C84.1132 136.509 85.1602 135.459 86.4109 134.686C87.6636 133.963 89.0953 133.588 90.5509 133.602C92.0151 133.588 93.4556 133.963 94.7186 134.686C95.9537 135.427 96.954 136.487 97.6082 137.749C98.3514 139.049 98.7345 140.516 98.7196 142.005C98.741 143.494 98.3575 144.963 97.6082 146.261V146.315ZM105.721 135.879C104.879 133.959 103.672 132.212 102.165 130.728C100.667 129.232 98.8702 128.051 96.8858 127.259C94.8686 126.408 92.6927 125.975 90.4953 125.985C88.3447 126.001 86.2157 126.405 84.2159 127.177C82.2337 127.979 80.4239 129.138 78.8813 130.593C77.3955 132.099 76.1834 133.84 75.297 135.743C74.4501 137.765 74.0159 139.929 74.0189 142.113C73.9792 144.979 74.7689 147.798 76.2973 150.245C77.7293 152.699 79.8119 154.73 82.3266 156.127C84.7877 157.588 87.6145 158.357 90.4953 158.35C92.7101 158.355 94.9029 157.921 96.9413 157.076C98.9236 156.256 100.718 155.058 102.22 153.552C103.706 152.043 104.893 150.278 105.721 148.348C106.537 146.385 106.953 144.286 106.944 142.167C106.952 140.032 106.537 137.915 105.721 135.933V135.879Z" fill="#2BA495"/>
<path fill-rule="evenodd" clip-rule="evenodd" d="M115.056 158.053V125.931H123.336V137.913H135.7V125.931H143.925V158.053H135.7V145.719H123.336V158.053H115.056Z" fill="#2BA495"/>
<path fill-rule="evenodd" clip-rule="evenodd" d="M168.68 133.846V158.16H160.401V133.846H152.093V126.039H176.905V133.846H168.68Z" fill="#2BA495"/>
</g>
<path fill-rule="evenodd" clip-rule="evenodd" d="M96.835 54.826L97.179 68.5127L98.6699 71.347L98.3641 73.6219L100.543 71.0113L99.0904 68.2143L99.2815 53.9309L96.835 54.826Z" fill="#2BA495"/>
<path fill-rule="evenodd" clip-rule="evenodd" d="M67.6685 51.6941L68.3566 68.2151L69.4652 70.6019L69.771 73.4735L71.1471 70.6019L70.5355 67.9541L70.3826 53.1112L67.6685 51.6941Z" fill="#2BA495"/>
<path fill-rule="evenodd" clip-rule="evenodd" d="M61.2478 24.469C60.946 25.3285 60.8649 26.2472 61.0115 27.1444C61.1581 28.0416 61.528 28.8901 62.0888 29.6155C63.9086 33.7286 67.1017 37.1199 71.1485 39.2372C79.0613 43.526 91.5996 44.0108 100.545 43.2649C103.009 43.1521 105.449 42.7386 107.808 42.0343C109.834 41.4003 111.363 40.4679 111.095 38.6778C110.827 36.8877 107.808 37.2607 106.47 37.5217C103.438 38.145 100.354 38.4945 97.2571 38.566C95.384 38.566 93.4344 38.566 91.8289 38.566C84.7032 38.8189 77.6243 37.3454 71.2249 34.2772C67.1246 31.856 63.6982 28.4876 61.2478 24.469Z" fill="#2BA495"/>
<path fill-rule="evenodd" clip-rule="evenodd" d="M105.779 12.0502C95.8787 8.58193 70.8786 5.03904 70.5346 21.3736C72.2166 36.291 92.6677 33.4194 103.256 33.4194C99.4338 25.0657 99.7014 17.7561 105.779 12.0502Z" fill="#2BA495"/>
<path fill-rule="evenodd" clip-rule="evenodd" d="M154.137 27.8626C150.386 31.6146 145.587 34.2083 140.337 35.3213C136.843 36.1466 133.291 36.72 129.71 37.0368C129.951 35.654 130.117 34.2598 130.207 32.8599C137.05 31.6666 144.81 29.0187 144.427 21.1125C144.045 13.2063 133.342 9.92442 126.346 9.92442C123.906 9.93252 121.472 10.1824 119.083 10.6703C99.2821 -4.02337 64.4578 -2.38245 48.3263 16.0779C46.3324 18.4922 44.8691 21.281 44.0273 24.2708C43.1855 27.2606 42.9834 30.3874 43.4333 33.4566C43.1779 38.2049 43.694 42.9627 44.9624 47.5536L46.0709 51.6932H46.5679V78.8802C66.4074 78.5445 83.9915 78.5445 103.907 78.5445H104.328H104.863C106.74 78.2692 108.445 77.3226 109.646 75.8888C110.847 74.4551 111.459 72.6367 111.362 70.7875V69.2211L110.1 67.804C109.562 67.2827 109.052 66.735 108.571 66.1631L108.915 55.9446L112.355 54.4529V54.714C112.447 58.4701 113.651 62.1201 115.821 65.2237C117.992 68.3273 121.036 70.7518 124.588 72.2046C127.541 73.1513 130.617 73.6788 133.724 73.771C136.209 74.1447 138.752 73.74 140.987 72.6149C141.546 72.1984 141.938 71.6049 142.096 70.9366C142.593 67.6548 139.802 67.2073 137.279 66.8344L135.482 66.5733C132.955 66.166 130.641 64.945 128.908 63.105C125.085 58.7417 125.429 51.3948 125.085 45.8008C125.935 44.8532 126.726 43.857 127.455 42.8173C138.923 41.6612 151.729 38.3048 158.571 28.7204C160.733 25.3744 161.848 21.4867 161.782 17.5323C159.993 21.3939 157.536 24.9262 154.519 27.9745L154.137 27.8626ZM132.08 67.2819C133.059 67.6952 134.11 67.923 135.177 67.9532C136.476 67.9532 137.738 67.9532 138.311 69.1839C138.885 70.4145 138.311 70.7502 136.897 71.235C135.941 71.5632 134.927 71.7027 133.915 71.6452C129.654 71.9721 125.42 70.7501 122.027 68.2142C118.371 65.6323 115.685 61.9506 114.381 57.7347C113.54 53.686 113.346 49.5344 113.808 45.4279C113.808 43.6378 114.649 33.4939 119.466 35.5451C120.995 35.8061 122.065 39.088 122.065 39.7593C122.065 41.9969 122.83 51.544 123.021 52.5509C123.302 54.7493 123.775 56.9203 124.435 59.04C124.838 60.9151 125.729 62.6578 127.021 64.1009C128.312 65.5441 129.962 66.6394 131.813 67.2819H132.08ZM124.817 37.1114V37.3725H124.588C124.122 35.6243 123.022 34.1004 121.492 33.0837C121.712 32.878 121.88 32.6256 121.984 32.3461C122.089 32.0666 122.125 31.7675 122.092 31.4719C122.059 31.1763 121.956 30.8922 121.793 30.6414C121.629 30.3906 121.408 30.1799 121.148 30.0256C119.542 29.3544 118.701 31.1817 119.045 32.4124C118.447 32.3753 117.847 32.3753 117.248 32.4124C117.593 31.1072 116.599 29.4662 115.07 30.1002C113.541 30.7342 114.305 32.3378 115.337 33.0837C115.337 33.0837 114.993 33.3448 114.802 33.4193C113.939 34.3097 113.355 35.4227 113.12 36.6266C112.93 37.4383 112.79 38.2601 112.7 39.088C112.185 42.4459 111.93 45.8366 111.935 49.2318L110.406 49.8285L103.984 52.6255L103.411 67.8786C104.328 68.7736 105.36 69.7805 106.277 70.7502C106.32 71.1256 106.285 71.5055 106.174 71.8675C106.064 72.2295 105.88 72.5663 105.635 72.8581C105.389 73.15 105.086 73.3909 104.743 73.5669C104.401 73.7429 104.026 73.8503 103.64 73.8828H81.1627C79.2132 73.3234 78.5634 72.2419 79.0603 70.8248L80.2453 68.438L80.5129 55.3479L75.3524 54.6021L74.9319 67.6175C75.6964 68.5126 76.5374 69.5941 77.3019 70.601C77.4058 71.2125 77.3519 71.8396 77.145 72.4256C76.9381 73.0116 76.5847 73.5381 76.1169 73.9574H69.5802L51.2697 74.2931V41.9596C50.5816 40.7289 50.9257 39.4236 50.2376 38.2302C50.2376 41.1391 49.3202 43.9361 49.4731 46.7331C48.2565 42.478 47.8293 38.0449 48.2116 33.6431C47.7377 31.1345 47.8344 28.5549 48.495 26.0867C49.1555 23.6186 50.3638 21.3221 52.0343 19.3597C67.0955 2.09278 101.04 1.08585 117.937 15.9287C120.964 18.5044 123.208 21.8429 124.421 25.5789C125.635 29.3149 125.772 33.3045 124.817 37.1114Z" fill="#2BA495"/>
<defs>
<clipPath id="clip0_411_45347">
<rect width="180" height="58.6047" fill="white" transform="translate(0 99.8)"/>
</clipPath>
</defs>
</svg>
