<svg width="245" height="257" viewBox="0 0 249 180" fill="none" xmlns="http://www.w3.org/2000/svg">
<g opacity="0.1">
<path d="M100 6.74926L75.5 49.6243H26.5L2 6.74926L26.5 -36.1257L75.5 -36.1257L100 6.74926Z" stroke="#2BA495" stroke-width="2"/>
<path d="M247 6.74926L222.5 49.6243H173.5L149 6.74926L173.5 -36.1257L222.5 -36.1257L247 6.74926Z" stroke="#2BA495" stroke-width="2"/>
<path d="M100 92.498L75.5 135.373H26.5L2 92.498L26.5 49.623L75.5 49.623L100 92.498Z" stroke="#2BA495" stroke-width="2"/>
<path d="M247 92.498L222.5 135.373H173.5L149 92.498L173.5 49.623L222.5 49.623L247 92.498Z" stroke="#2BA495" stroke-width="2"/>
<path d="M173.5 49.6269L149 92.5019H99.9997L75.4998 49.6269L99.9998 6.75195L149 6.75196L173.5 49.6269Z" stroke="#2BA495" stroke-width="2"/>
<path d="M173.5 -36.125L149 6.74999H99.9997L75.4998 -36.125L99.9998 -79L149 -79L173.5 -36.125Z" stroke="#2BA495" stroke-width="2"/>
<path d="M173.5 135.375L149 178.25H99.9997L75.4998 135.375L99.9998 92.5005L149 92.5005L173.5 135.375Z" stroke="#2BA495" stroke-width="2"/>
</g>
</svg>
