<svg width="138" height="145" viewBox="0 0 142 147" fill="none" xmlns="http://www.w3.org/2000/svg">
<g opacity="0.1">
<path d="M57.2382 49.333L43.4286 73.4997H15.8095L2 49.333L15.8095 25.1663L43.4286 25.1663L57.2382 49.333Z" stroke="#2BA495" stroke-width="2"/>
<path d="M140.095 49.333L126.286 73.4997H98.6667L84.8572 49.333L98.6668 25.1663L126.286 25.1663L140.095 49.333Z" stroke="#2BA495" stroke-width="2"/>
<path d="M57.2382 97.6657L43.4286 121.832H15.8095L2 97.6657L15.8095 73.499L43.4286 73.499L57.2382 97.6657Z" stroke="#2BA495" stroke-width="2"/>
<path d="M140.095 97.6657L126.286 121.832H98.6667L84.8572 97.6657L98.6668 73.499L126.286 73.499L140.095 97.6657Z" stroke="#2BA495" stroke-width="2"/>
<path d="M98.6667 73.5012L84.8571 97.6679H57.238L43.4285 73.5012L57.238 49.3345L84.8571 49.3345L98.6667 73.5012Z" stroke="#2BA495" stroke-width="2"/>
<path d="M98.6667 25.1667L84.8571 49.3334H57.238L43.4285 25.1667L57.238 1L84.8571 1L98.6667 25.1667Z" stroke="#2BA495" stroke-width="2"/>
<path d="M98.6667 121.834L84.8571 146.001H57.238L43.4285 121.834L57.238 97.6672L84.8571 97.6672L98.6667 121.834Z" stroke="#2BA495" stroke-width="2"/>
</g>
</svg>
