<svg width="152" height="156" viewBox="0 0 156 138" fill="none" xmlns="http://www.w3.org/2000/svg">
<g opacity="0.1">
<path d="M62.8 30.2001L47.6 56.8001H17.2L2 30.2001L17.2 3.6001L47.6 3.6001L62.8 30.2001Z" stroke="#2BA495" stroke-width="2"/>
<path d="M154 30.2001L138.8 56.8001H108.4L93.2 30.2001L108.4 3.6001L138.8 3.6001L154 30.2001Z" stroke="#2BA495" stroke-width="2"/>
<path d="M62.8 83.3996L47.6 110H17.2L2 83.3996L17.2 56.7996L47.6 56.7996L62.8 83.3996Z" stroke="#2BA495" stroke-width="2"/>
<path d="M154 83.3996L138.8 110H108.4L93.2 83.3996L108.4 56.7996L138.8 56.7996L154 83.3996Z" stroke="#2BA495" stroke-width="2"/>
<path d="M108.4 56.8004L93.2 83.4004H62.8L47.6 56.8004L62.8 30.2004L93.2 30.2004L108.4 56.8004Z" stroke="#2BA495" stroke-width="2"/>
<path d="M108.4 3.6L93.2 30.2H62.8L47.6 3.6L62.8 -23L93.2 -23L108.4 3.6Z" stroke="#2BA495" stroke-width="2"/>
<path d="M108.4 110L93.2 136.6H62.8L47.6 110L62.8 83.3999L93.2 83.3999L108.4 110Z" stroke="#2BA495" stroke-width="2"/>
</g>
</svg>
