<svg width="152" height="159" viewBox="0 0 156 162" fill="none" xmlns="http://www.w3.org/2000/svg">
<g opacity="0.1">
<path d="M62.8 54.1996L47.6 80.7996H17.2L2 54.1996L17.2 27.5996L47.6 27.5996L62.8 54.1996Z" stroke="#2BA495" stroke-width="2"/>
<path d="M154 54.1996L138.8 80.7996H108.4L93.2 54.1996L108.4 27.5996L138.8 27.5996L154 54.1996Z" stroke="#2BA495" stroke-width="2"/>
<path d="M62.8 107.399L47.6 133.999H17.2L2 107.399L17.2 80.7988L47.6 80.7988L62.8 107.399Z" stroke="#2BA495" stroke-width="2"/>
<path d="M154 107.399L138.8 133.999H108.4L93.2 107.399L108.4 80.7988L138.8 80.7988L154 107.399Z" stroke="#2BA495" stroke-width="2"/>
<path d="M108.4 80.8012L93.1999 107.401H62.7999L47.5999 80.8012L62.7999 54.2012L93.1999 54.2012L108.4 80.8012Z" stroke="#2BA495" stroke-width="2"/>
<path d="M108.4 27.6L93.2 54.2H62.8L47.6 27.6L62.8 1L93.2 1L108.4 27.6Z" stroke="#2BA495" stroke-width="2"/>
<path d="M108.4 134L93.1999 160.6H62.7999L47.5999 134L62.7999 107.4L93.1999 107.4L108.4 134Z" stroke="#2BA495" stroke-width="2"/>
</g>
</svg>
