<svg width="241" height="259" viewBox="0 0 231 157" fill="none" xmlns="http://www.w3.org/2000/svg">
<g opacity="0.1">
<path d="M100.8 87.4496L76.1 130.675H26.7L2 87.4496L26.7 44.2246L76.1 44.2246L100.8 87.4496Z" stroke="#2BA495" stroke-width="2"/>
<path d="M249 87.4496L224.3 130.675H174.9L150.2 87.4496L174.9 44.2246L224.3 44.2246L249 87.4496Z" stroke="#2BA495" stroke-width="2"/>
<path d="M100.8 173.901L76.1 217.126H26.7L2 173.901L26.7 130.676L76.1 130.676L100.8 173.901Z" stroke="#2BA495" stroke-width="2"/>
<path d="M249 173.901L224.3 217.126H174.9L150.2 173.901L174.9 130.676L224.3 130.676L249 173.901Z" stroke="#2BA495" stroke-width="2"/>
<path d="M174.9 130.676L150.2 173.901H100.8L76.0997 130.676L100.8 87.4512L150.2 87.4512L174.9 130.676Z" stroke="#2BA495" stroke-width="2"/>
<path d="M174.9 44.225L150.2 87.45H100.8L76.0997 44.225L100.8 1L150.2 1L174.9 44.225Z" stroke="#2BA495" stroke-width="2"/>
</g>
</svg>
