<svg width="212" height="223" viewBox="0 0 128 225" fill="none" xmlns="http://www.w3.org/2000/svg">
<g opacity="0.1">
<path d="M126 75.1996L104.8 112.3H62.3999L41.1999 75.1996L62.3999 38.0996L104.8 38.0996L126 75.1996Z" stroke="#2BA495" stroke-width="2"/>
<path d="M126 149.399L104.8 186.499H62.3999L41.1999 149.399L62.3999 112.299L104.8 112.299L126 149.399Z" stroke="#2BA495" stroke-width="2"/>
<path d="M62.3998 112.302L41.1998 149.402H-1.20022L-22.4002 112.302L-1.20021 75.2017L41.1998 75.2017L62.3998 112.302Z" stroke="#2BA495" stroke-width="2"/>
<path d="M62.3998 38.1002L41.1998 75.2002H-1.20022L-22.4002 38.1002L-1.20021 1.00024L41.1998 1.00025L62.3998 38.1002Z" stroke="#2BA495" stroke-width="2"/>
<path d="M62.3998 186.501L41.1998 223.601H-1.20022L-22.4002 186.501L-1.20021 149.401L41.1998 149.401L62.3998 186.501Z" stroke="#2BA495" stroke-width="2"/>
</g>
</svg>
